<svg xmlns="http://www.w3.org/2000/svg" xmlns:xlink="http://www.w3.org/1999/xlink" width="512" height="512" viewBox="0 0 512 512"><path fill="currentColor" d="M256.875 16A30 30 0 00226 46a30 30 0 0060 0 30 30 0 00-29.125-30zm-45 75A30 30 0 00181 121a30 30 0 0060 0 30 30 0 00-29.125-30zm74.563 30A15 15 0 00271 136a15 15 0 0030 0 15 15 0 00-14.563-15zm-30 45A15 15 0 00241 181a15 15 0 0030 0 15 15 0 00-14.563-15zM196 196c-45 0-15 30 0 45 0 150-120 225-120 255h360c0-30-120-105-120-255 15-15 45-45 0-45-15 0-30 15-60 15s-45-15-60-15z"/></svg>